HIERARCHY
ROOT Haolin_28_06:Solving:Hips
{
	OFFSET 0.000000 0.000000 0.000000
	CHANNELS 6 Xposition Yposition Zposition Xrotation Yrotation Zrotation
	JOINT Haolin_28_06:Solving:Spine
	{
		OFFSET 0.000000 -12.181966 2.015561
		CHANNELS 6 Xposition Yposition Zposition Xrotation Yrotation Zrotation
		JOINT Haolin_28_06:Solving:Spine1
		{
			OFFSET 0.000000 -8.890296 1.567602
			CHANNELS 6 Xposition Yposition Zposition Xrotation Yrotation Zrotation
			JOINT Haolin_28_06:Solving:Spine2
			{
				OFFSET 0.000000 -8.993092 0.786796
				CHANNELS 6 Xposition Yposition Zposition Xrotation Yrotation Zrotation
				JOINT Haolin_28_06:Solving:Spine3
				{
					OFFSET 0.000000 -9.027443 0.000000
					CHANNELS 6 Xposition Yposition Zposition Xrotation Yrotation Zrotation
					JOINT Haolin_28_06:Solving:Neck
					{
						OFFSET 0.000000 -11.606712 -1.160669
						CHANNELS 6 Xposition Yposition Zposition Xrotation Yrotation Zrotation
						JOINT Haolin_28_06:Solving:Neck1
						{
							OFFSET 0.000000 -7.471592 -0.653680
							CHANNELS 6 Xposition Yposition Zposition Xrotation Yrotation Zrotation
							JOINT Haolin_28_06:Solving:Head
							{
								OFFSET 0.000000 -7.386181 -1.302382
								CHANNELS 6 Xposition Yposition Zposition Xrotation Yrotation Zrotation
								JOINT Haolin_28_06:Solving:HeadEnd
								{
									OFFSET 0.000000 -9.728081 0.000002
									CHANNELS 6 Xposition Yposition Zposition Xrotation Yrotation Zrotation
									End Site
									{
										OFFSET 0.000000 -9.728081 0.000002
									}
								}
							}
						}
					}
					JOINT Haolin_28_06:Solving:RightShoulder
					{
						OFFSET 0.000000 -8.290508 -5.270916
						CHANNELS 6 Xposition Yposition Zposition Xrotation Yrotation Zrotation
						JOINT Haolin_28_06:Solving:RightArm
						{
							OFFSET -19.261074 -0.000008 0.000000
							CHANNELS 6 Xposition Yposition Zposition Xrotation Yrotation Zrotation
							JOINT Haolin_28_06:Solving:RightForeArm
							{
								OFFSET -30.691700 -0.000011 0.000000
								CHANNELS 6 Xposition Yposition Zposition Xrotation Yrotation Zrotation
								JOINT Haolin_28_06:Solving:RightHand
								{
									OFFSET -20.216934 -0.000008 0.000000
									CHANNELS 6 Xposition Yposition Zposition Xrotation Yrotation Zrotation
									JOINT Haolin_28_06:Solving:RightHandThumb1
									{
										OFFSET -4.948814 2.881329 -3.679893
										CHANNELS 6 Xposition Yposition Zposition Xrotation Yrotation Zrotation
										End Site
										{
											OFFSET -7.039886 -0.000004 -7.104978
										}
									}
									JOINT Haolin_28_06:Solving:RightHandMiddle1
									{
										OFFSET -13.196846 -0.000004 0.084595
										CHANNELS 6 Xposition Yposition Zposition Xrotation Yrotation Zrotation
										End Site
										{
											OFFSET -10.002037 -0.000004 0.000000
										}
									}
								}
							}
						}
					}
					JOINT Haolin_28_06:Solving:LeftShoulder
					{
						OFFSET 0.000000 -8.290508 -5.270916
						CHANNELS 6 Xposition Yposition Zposition Xrotation Yrotation Zrotation
						JOINT Haolin_28_06:Solving:LeftArm
						{
							OFFSET 19.261074 -0.000008 0.000000
							CHANNELS 6 Xposition Yposition Zposition Xrotation Yrotation Zrotation
							JOINT Haolin_28_06:Solving:LeftForeArm
							{
								OFFSET 30.691700 -0.000011 0.000000
								CHANNELS 6 Xposition Yposition Zposition Xrotation Yrotation Zrotation
								JOINT Haolin_28_06:Solving:LeftHand
								{
									OFFSET 20.216934 -0.000008 0.000000
									CHANNELS 6 Xposition Yposition Zposition Xrotation Yrotation Zrotation
									JOINT Haolin_28_06:Solving:LeftHandThumb1
									{
										OFFSET 4.948814 2.881329 -3.679893
										CHANNELS 6 Xposition Yposition Zposition Xrotation Yrotation Zrotation
										End Site
										{
											OFFSET 7.039886 -0.000004 -7.104978
										}
									}
									JOINT Haolin_28_06:Solving:LeftHandMiddle1
									{
										OFFSET 13.196846 -0.000004 0.084595
										CHANNELS 6 Xposition Yposition Zposition Xrotation Yrotation Zrotation
										End Site
										{
											OFFSET 10.002037 -0.000004 0.000000
										}
									}
								}
							}
						}
					}
				}
			}
		}
	}
	JOINT Haolin_28_06:Solving:RightUpLeg
	{
		OFFSET -10.083070 0.000000 0.000000
		CHANNELS 6 Xposition Yposition Zposition Xrotation Yrotation Zrotation
		JOINT Haolin_28_06:Solving:RightLeg
		{
			OFFSET 0.000000 47.042522 -0.000008
			CHANNELS 6 Xposition Yposition Zposition Xrotation Yrotation Zrotation
			JOINT Haolin_28_06:Solving:RightFoot
			{
				OFFSET 0.000000 38.766415 -0.000006
				CHANNELS 6 Xposition Yposition Zposition Xrotation Yrotation Zrotation
				JOINT Haolin_28_06:Solving:RightForeFoot
				{
					OFFSET 0.000000 3.531212 -0.000000
					CHANNELS 6 Xposition Yposition Zposition Xrotation Yrotation Zrotation
					JOINT Haolin_28_06:Solving:RightToeBase
					{
						OFFSET 0.000000 0.000000 -13.829352
						CHANNELS 6 Xposition Yposition Zposition Xrotation Yrotation Zrotation
						JOINT Haolin_28_06:Solving:RightToeBaseEnd
						{
							OFFSET 0.000000 0.000000 -4.034167
							CHANNELS 6 Xposition Yposition Zposition Xrotation Yrotation Zrotation
							End Site
							{
								OFFSET 0.000000 -4.034164 0.000004
							}
						}
					}
				}
			}
		}
	}
	JOINT Haolin_28_06:Solving:LeftUpLeg
	{
		OFFSET 10.083070 0.000000 0.000000
		CHANNELS 6 Xposition Yposition Zposition Xrotation Yrotation Zrotation
		JOINT Haolin_28_06:Solving:LeftLeg
		{
			OFFSET 0.000000 47.042522 -0.000008
			CHANNELS 6 Xposition Yposition Zposition Xrotation Yrotation Zrotation
			JOINT Haolin_28_06:Solving:LeftFoot
			{
				OFFSET 0.000000 38.766415 -0.000006
				CHANNELS 6 Xposition Yposition Zposition Xrotation Yrotation Zrotation
				JOINT Haolin_28_06:Solving:LeftForeFoot
				{
					OFFSET 0.000000 3.531212 -0.000000
					CHANNELS 6 Xposition Yposition Zposition Xrotation Yrotation Zrotation
					JOINT Haolin_28_06:Solving:LeftToeBase
					{
						OFFSET 0.000000 0.000000 -13.829352
						CHANNELS 6 Xposition Yposition Zposition Xrotation Yrotation Zrotation
						JOINT Haolin_28_06:Solving:LeftToeBaseEnd
						{
							OFFSET 0.000000 0.000000 -4.855067
							CHANNELS 6 Xposition Yposition Zposition Xrotation Yrotation Zrotation
							End Site
							{
								OFFSET 0.000000 -4.855064 0.000004
							}
						}
					}
				}
			}
		}
	}
}
MOTION
Frames: 4
Frame Time: 0.041667
5.333902 22.663992 -93.131317 24.468137 67.202928 65.706502 0.000001 -12.181939 2.015558 16.823634 0.064551 2.036634 0.000001 -8.890307 1.567601 1.370608 0.086156 1.040150 0.000003 -8.993097 0.786794 -1.448992 7.212081 1.513860 -0.000000 -9.027433 0.000002 -1.137551 1.408565 -0.269513 -0.000005 -11.606692 -1.160679 -3.016544 24.970682 -4.964416 0.000002 -7.471602 -0.653683 0.342590 45.720484 1.615630 -0.000001 -7.386188 -1.302379 7.622734 2.663560 -2.134609 -0.000004 -9.728104 0.000002 0.000001 -0.000003 -0.000001 0.000002 -8.290508 -5.270927 -0.000011 19.797115 7.701767 -19.261076 0.000007 0.000005 -39.336999 -68.673946 -107.444299 -30.691694 -0.000011 -0.000004 -12.686278 -24.810068 -5.396033 -20.216915 -0.000008 0.000001 -0.088521 -10.446513 -0.488250 -4.948788 2.881316 -3.679844 -0.000004 0.000005 0.000015 -13.196817 -0.000011 0.084615 -0.000001 0.000002 0.000007 0.000002 -8.290508 -5.270926 -0.000003 -4.488818 -11.007107 19.261063 -0.000029 0.000003 -26.645481 44.938082 99.324420 30.691677 -0.000020 0.000002 4.845739 33.950719 -2.710682 20.216938 -0.000024 -0.000004 0.597803 5.995744 -5.704332 4.948788 2.881322 -3.679874 -0.000008 0.000000 0.000005 13.196835 -0.000018 0.084599 -0.000004 0.000004 0.000004 -10.083067 0.000023 -0.000008 9.240811 -18.551098 -5.337529 -0.000001 47.042522 0.000002 19.836480 -0.000002 -0.000002 0.000002 38.766430 -0.000008 -3.120637 -3.568604 -9.310707 -0.000000 3.531204 0.000000 -0.000000 0.000005 0.000000 0.000001 0.000012 -13.829353 -3.939349 -0.000009 0.000004 -0.000005 0.000007 -4.034169 -0.000001 0.000004 0.000000 10.083075 0.000015 -0.000015 13.629374 -33.218495 -13.108672 -0.000000 47.042530 -0.000001 23.551734 0.000000 -0.000000 -0.000005 38.766430 -0.000002 -3.975895 -16.028306 6.916101 0.000005 3.531205 0.000008 -0.000000 -0.000004 0.000002 -0.000003 -0.000002 -13.829356 -2.645197 0.000002 -0.000001 0.000006 -0.000008 -4.855070 0.000001 0.000002 -0.000000 
5.295921 22.639944 -93.155670 22.700234 67.462052 67.691655 -0.000002 -12.181975 2.015561 16.782490 0.054570 1.952940 -0.000001 -8.890287 1.567596 1.349240 0.089476 1.037276 0.000002 -8.993099 0.786794 -1.467946 7.326566 1.500307 0.000001 -9.027434 0.000001 -1.164479 1.445593 -0.326449 0.000003 -11.606701 -1.160658 -3.124001 25.013608 -4.958176 0.000005 -7.471616 -0.653678 0.361965 45.729377 1.574133 0.000006 -7.386199 -1.302383 7.650380 2.663026 -2.150304 0.000006 -9.728096 0.000017 -0.000000 0.000000 0.000001 -0.000000 -8.290504 -5.270906 -0.000012 19.810945 7.674985 -19.261078 -0.000026 -0.000001 -39.113700 -68.898099 -107.325023 -30.691708 -0.000010 -0.000003 -12.893556 -24.838190 -5.492463 -20.216927 -0.000019 -0.000002 -0.100978 -10.430564 -0.557786 -4.948814 2.881340 -3.679878 -0.000005 -0.000000 -0.000000 -13.196842 -0.000005 0.084590 -0.000007 0.000004 0.000005 0.000001 -8.290504 -5.270906 -0.000003 -4.443941 -11.021463 19.261068 -0.000036 0.000002 -26.931450 45.755284 100.013442 30.691677 -0.000018 -0.000002 5.466911 34.328684 -3.089390 20.216957 -0.000015 0.000011 0.557959 6.167735 -5.179273 4.948805 2.881336 -3.679890 -0.000004 0.000010 -0.000011 13.196838 0.000009 0.084584 0.000002 0.000007 -0.000000 -10.083076 0.000000 -0.000002 9.217597 -19.012772 -5.513520 -0.000000 47.042530 -0.000004 19.662661 -0.000002 -0.000002 0.000004 38.766411 -0.000006 -2.757960 -3.940757 -9.092751 -0.000001 3.531204 -0.000001 -0.000000 -0.000011 -0.000001 -0.000001 0.000022 -13.829356 -4.074674 -0.000001 -0.000001 0.000001 0.000000 -4.034163 -0.000000 0.000002 -0.000000 10.083061 0.000005 0.000002 14.320719 -32.131505 -12.912613 0.000001 47.042519 0.000009 23.373739 -0.000002 0.000002 -0.000003 38.766418 -0.000004 -4.173240 -14.135352 7.089451 -0.000001 3.531197 0.000002 -0.000000 0.000003 -0.000002 0.000004 -0.000003 -13.829348 -2.730102 0.000001 -0.000001 -0.000003 -0.000008 -4.855060 -0.000002 -0.000000 0.000002 
5.289197 22.615028 -93.165611 21.163679 67.741680 69.482702 -0.000000 -12.181958 2.015568 16.708152 0.073691 1.841600 0.000001 -8.890297 1.567595 1.299900 0.097706 1.036103 0.000005 -8.993088 0.786793 -1.487009 7.452871 1.477402 0.000003 -9.027450 -0.000001 -1.210383 1.485959 -0.384569 -0.000001 -11.606726 -1.160663 -3.225659 25.044921 -4.962333 -0.000000 -7.471614 -0.653680 0.349190 45.693648 1.566889 -0.000001 -7.386186 -1.302389 7.672299 2.662028 -2.159513 -0.000001 -9.728111 0.000006 0.000001 0.000000 -0.000000 0.000001 -8.290504 -5.270909 -0.000017 19.819913 7.642773 -19.261068 0.000011 0.000003 -38.663590 -68.859898 -107.011415 -30.691711 -0.000015 0.000002 -12.908385 -24.790417 -5.489105 -20.216913 -0.000015 -0.000004 -0.158895 -10.372600 -0.882471 -4.948819 2.881318 -3.679866 0.000003 0.000007 -0.000005 -13.196855 -0.000012 0.084616 -0.000006 0.000004 -0.000010 0.000001 -8.290504 -5.270909 -0.000007 -4.373199 -11.008279 19.261078 0.000017 0.000002 -27.184310 46.409920 100.681005 30.691668 -0.000021 -0.000005 6.139363 34.640216 -3.498797 20.216938 -0.000016 -0.000009 0.499413 6.406849 -4.466553 4.948797 2.881315 -3.679892 -0.000003 0.000005 -0.000003 13.196844 -0.000016 0.084588 0.000003 0.000001 -0.000003 -10.083073 -0.000009 -0.000000 9.080627 -19.451139 -5.726821 -0.000003 47.042542 -0.000001 19.504083 -0.000002 -0.000002 -0.000003 38.766415 -0.000008 -2.447292 -4.293043 -8.875847 -0.000001 3.531204 -0.000000 0.000000 -0.000002 0.000001 -0.000001 0.000015 -13.829353 -4.101290 -0.000002 0.000001 -0.000002 0.000007 -4.034165 -0.000002 0.000004 -0.000000 10.083069 -0.000001 0.000000 14.932337 -30.805021 -12.731743 -0.000003 47.042515 -0.000001 23.242148 0.000001 -0.000001 -0.000008 38.766415 -0.000005 -4.591681 -11.790902 7.223100 0.000005 3.531204 0.000003 0.000003 -0.000002 0.000001 -0.000009 -0.000006 -13.829348 -2.460531 -0.000002 0.000003 0.000009 -0.000007 -4.855079 0.000001 -0.000001 0.000000 
5.296746 22.598904 -93.170723 19.630674 68.023391 71.221149 -0.000002 -12.181971 2.015550 16.634086 0.104506 1.784840 -0.000003 -8.890313 1.567609 1.248766 0.103268 1.043303 0.000005 -8.993097 0.786797 -1.529550 7.566295 1.466190 0.000004 -9.027452 0.000003 -1.257219 1.522946 -0.446313 -0.000006 -11.606713 -1.160675 -3.323512 25.073903 -4.989640 0.000003 -7.471574 -0.653683 0.331221 45.628601 1.564280 0.000003 -7.386217 -1.302386 7.707559 2.661100 -2.180240 0.000003 -9.728104 0.000005 -0.000001 0.000002 0.000002 0.000001 -8.290508 -5.270926 -0.000007 19.792690 7.658594 -19.261068 0.000024 -0.000006 -37.947199 -68.209110 -106.579324 -30.691696 -0.000012 0.000002 -12.276174 -24.550907 -5.166236 -20.216946 -0.000011 0.000002 -0.251422 -10.452415 -1.385644 -4.948787 2.881319 -3.679887 -0.000001 -0.000003 -0.000004 -13.196831 -0.000017 0.084585 0.000000 0.000001 0.000000 -0.000000 -8.290508 -5.270925 -0.000002 -4.290131 -10.997741 19.261070 -0.000018 0.000006 -27.469665 46.968387 101.354277 30.691692 -0.000007 0.000001 7.127714 34.833500 -4.085490 20.216919 -0.000011 0.000003 0.406593 6.733152 -3.463710 4.948787 2.881336 -3.679898 -0.000005 -0.000007 -0.000007 13.196833 0.000000 0.084567 -0.000000 0.000006 -0.000007 -10.083072 -0.000009 -0.000010 8.919237 -19.927924 -5.889869 -0.000001 47.042522 -0.000001 19.376454 0.000001 -0.000000 0.000001 38.766434 -0.000006 -2.244157 -4.565590 -8.863425 -0.000003 3.531212 0.000000 0.000000 0.000001 -0.000001 -0.000001 0.000013 -13.829351 -4.080037 -0.000004 -0.000002 -0.000002 0.000000 -4.034174 0.000000 -0.000001 -0.000000 10.083073 -0.000002 -0.000006 15.564859 -29.301303 -12.451346 0.000003 47.042530 -0.000001 23.079038 0.000002 -0.000002 -0.000004 38.766418 -0.000010 -4.962003 -9.485932 7.264308 0.000001 3.531219 -0.000002 -0.000002 0.000000 -0.000001 0.000009 0.000010 -13.829357 -2.582591 -0.000008 -0.000002 -0.000009 -0.000008 -4.855056 0.000000 0.000008 -0.000000 
